<svg xmlns="http://www.w3.org/2000/svg" width="11" height="12" viewBox="0 0 11 12">
  <g id="Group_7562" data-name="Group 7562" transform="translate(-831.5 -560)">
    <g id="Rectangle_1857" data-name="Rectangle 1857" transform="translate(833 565)" fill="none" stroke="#f39200" stroke-width="1">
      <rect width="8" height="7" rx="1" stroke="none"/>
      <rect x="0.5" y="0.5" width="7" height="6" rx="0.5" fill="none"/>
    </g>
    <g id="Path_5666" data-name="Path 5666" transform="translate(842.5 566) rotate(180)" fill="none">
      <path d="M5.244,5.892a.358.358,0,0,0,.513,0l5.025-4.638C11.18.886,11,0,10.525,0H.475C0,0-.18.886.219,1.254Z" stroke="none"/>
      <path d="M 5.500000476837158 4.767701148986816 L 9.581903457641602 0.9999951720237732 L 1.418096303939819 0.9999951720237732 L 5.500000476837158 4.767701148986816 M 5.500003337860107 6.00000524520874 C 5.410829544067383 6.00000524520874 5.321654319763184 5.963954925537109 5.243539333343506 5.891855239868164 L 0.218659520149231 1.253755211830139 C -0.179500475525856 0.8862451314926147 0.001779523212462664 -4.8401643653051e-06 0.4751195311546326 -4.8401643653051e-06 L 10.52487945556641 -4.8401643653051e-06 C 10.99821949005127 -4.8401643653051e-06 11.17949962615967 0.8862451314926147 10.78134918212891 1.253755211830139 L 5.756459712982178 5.891855239868164 C 5.678349494934082 5.963954925537109 5.589177131652832 6.00000524520874 5.500003337860107 6.00000524520874 Z" stroke="none" fill="#f39200"/>
    </g>
  </g>
</svg>
