<svg xmlns="http://www.w3.org/2000/svg" width="16" height="10" viewBox="0 0 16 10">
  <g id="Group_7478" data-name="Group 7478" transform="translate(-246.5 -447)">
    <g id="Rectangle_2035" data-name="Rectangle 2035" transform="translate(254 453)" fill="none" stroke="#f39200" stroke-width="1">
      <rect width="6" height="4" rx="1" stroke="none"/>
      <rect x="0.5" y="0.5" width="5" height="3" rx="0.5" fill="none"/>
    </g>
    <g id="Rectangle_2041" data-name="Rectangle 2041" transform="translate(254 447)" fill="none" stroke="#f39200" stroke-width="1">
      <rect width="6" height="4" rx="1" stroke="none"/>
      <rect x="0.5" y="0.5" width="5" height="3" rx="0.5" fill="none"/>
    </g>
    <g id="Rectangle_2038" data-name="Rectangle 2038" transform="translate(251.5 450)" fill="none" stroke="#f39200" stroke-width="1">
      <rect width="6" height="4" rx="1" stroke="none"/>
      <rect x="0.5" y="0.5" width="5" height="3" rx="0.5" fill="none"/>
    </g>
    <g id="Rectangle_2039" data-name="Rectangle 2039" transform="translate(256.5 450)" fill="none" stroke="#f39200" stroke-width="1">
      <rect width="6" height="4" rx="1" stroke="none"/>
      <rect x="0.5" y="0.5" width="5" height="3" rx="0.5" fill="none"/>
    </g>
    <g id="Rectangle_2036" data-name="Rectangle 2036" transform="translate(249 453)" fill="none" stroke="#f39200" stroke-width="1">
      <rect width="6" height="4" rx="1" stroke="none"/>
      <rect x="0.5" y="0.5" width="5" height="3" rx="0.5" fill="none"/>
    </g>
    <g id="Rectangle_2040" data-name="Rectangle 2040" transform="translate(249 447)" fill="none" stroke="#f39200" stroke-width="1">
      <rect width="6" height="4" rx="1" stroke="none"/>
      <rect x="0.5" y="0.5" width="5" height="3" rx="0.5" fill="none"/>
    </g>
    <g id="Rectangle_2037" data-name="Rectangle 2037" transform="translate(246.5 450)" fill="none" stroke="#f39200" stroke-width="1">
      <rect width="6" height="4" rx="1" stroke="none"/>
      <rect x="0.5" y="0.5" width="5" height="3" rx="0.5" fill="none"/>
    </g>
  </g>
</svg>
