<svg xmlns="http://www.w3.org/2000/svg" width="12" height="7" viewBox="0 0 12 7">
  <g id="Group_7560" data-name="Group 7560" transform="translate(-831 -563)">
    <g id="Rectangle_1857" data-name="Rectangle 1857" transform="translate(831 563)" fill="none" stroke="#f39200" stroke-width="1">
      <rect width="12" height="7" rx="1" stroke="none"/>
      <rect x="0.5" y="0.5" width="11" height="6" rx="0.5" fill="none"/>
    </g>
    <g id="Path_5666" data-name="Path 5666" transform="translate(842.5 567) rotate(180)" fill="none">
      <path d="M5.244.072a.492.492,0,0,1,.513,0l5.025,3.092A.451.451,0,0,1,10.525,4H.475a.451.451,0,0,1-.256-.836Z" stroke="none"/>
      <path d="M 5.499996185302734 1.088455438613892 L 2.393555641174316 3.000003337860107 L 8.606440544128418 3.000003337860107 L 5.499996185302734 1.088455438613892 M 5.500003337860107 -1.668930053710938e-06 C 5.589177131652832 -1.668930053710938e-06 5.678349494934082 0.0240333080291748 5.756459712982178 0.07210326194763184 L 10.78133964538574 3.16416335105896 C 11.17949962615967 3.409173488616943 10.99821949005127 4.000003337860107 10.52487945556641 4.000003337860107 L 0.4751195907592773 4.000003337860107 C 0.001779556274414062 4.000003337860107 -0.1795005798339844 3.409173488616943 0.2186594009399414 3.16416335105896 L 5.243539333343506 0.07210326194763184 C 5.321654319763184 0.0240333080291748 5.410829544067383 -1.668930053710938e-06 5.500003337860107 -1.668930053710938e-06 Z" stroke="none" fill="#f39200"/>
    </g>
  </g>
</svg>
